<svg width="35" height="35" viewBox="0 0 35 35" fill="none" xmlns="http://www.w3.org/2000/svg">
<g clip-path="url(#clip0_16_23)">
<path d="M20.8291 0.745117C13.4121 0.745117 7.40332 6.75391 7.40332 14.1709C7.40332 17.377 8.52441 20.3164 10.3975 22.627L1.16895 31.8555C0.62207 32.4023 0.62207 33.2842 1.16895 33.8311C1.71582 34.3779 2.59766 34.3779 3.14453 33.8311L12.373 24.6025C14.6836 26.4756 17.623 27.5967 20.8291 27.5967C28.2461 27.5967 34.2549 21.5879 34.2549 14.1709C34.2549 6.75391 28.2393 0.745117 20.8291 0.745117ZM20.8291 24.8076C14.957 24.8076 10.1924 20.043 10.1924 14.1709C10.1924 8.29883 14.957 3.53418 20.8291 3.53418C26.7012 3.53418 31.4658 8.29883 31.4658 14.1709C31.4658 20.043 26.7012 24.8076 20.8291 24.8076Z" fill="#828080"/>
</g>
<defs>
<clipPath id="clip0_16_23">
<rect width="35" height="35" fill="white"/>
</clipPath>
</defs>
</svg>
