<svg width="35" height="35" viewBox="0 0 35 35" fill="none" xmlns="http://www.w3.org/2000/svg">
<g clip-path="url(#clip0_18_31)">
<path d="M17.5 0C8.17777 0 0 8.17777 0 17.5C0 26.8222 8.17777 35 17.5 35C26.8222 35 35 26.8222 35 17.5C35 8.17777 26.8222 0 17.5 0ZM30.0038 27.7528L29.0436 27.0327L27.9667 24.8791L27.4084 22.6543L26.8251 19.1543C26.7946 18.97 26.6778 18.8116 26.5106 18.7279L24.1773 17.5612C24.0528 17.4989 23.9101 17.4832 23.7748 17.5174L21.675 18.0426L19.197 16.5549L18.6989 13.5671L20.125 11.6667H22.5085L24.0876 13.2458C24.2251 13.3831 24.422 13.4426 24.6125 13.405L27.4751 12.8333H30.9167C31.0491 12.8333 31.1779 12.7883 31.2812 12.7054L32.6439 11.6154C33.422 13.4799 33.8262 15.4794 33.8333 17.5C33.7929 21.2598 32.4382 24.8871 30.0038 27.7528ZM29.2453 6.40271L28.3529 7.51868L23.4581 6.43005C23.3433 6.40556 23.224 6.41524 23.1146 6.45797L20.4167 7.53833L18.6462 6.83024L20.7135 5.17594L23.5504 4.04203C23.6236 4.01213 23.6899 3.96826 23.7458 3.91243L24.6937 2.96452C26.3916 3.85034 27.9302 5.01217 29.2473 6.40271H29.2453ZM7.69527 4.63989L9.11686 5.2087C9.18579 5.23604 9.25928 5.25 9.33333 5.25H13.2882L12.8917 7.23328L11.3422 8.26636C11.2343 8.33842 11.1534 8.44438 11.1124 8.56742L10.5541 10.2434L9.60449 11.6667H8.16667C8.05159 11.667 7.9388 11.7008 7.84281 11.7646L4.34281 14.098C4.2585 14.1544 4.19014 14.2319 4.14457 14.3227L3.56124 15.4894C3.49231 15.6275 3.48092 15.7876 3.52962 15.9343L4.11296 17.6843C4.17619 17.8734 4.33142 18.0175 4.52482 18.066L6.5981 18.5838L6.6394 18.6667H1.5885C1.47172 18.5493 1.3387 18.4496 1.19344 18.3704C1.17664 18.0833 1.16667 17.7917 1.16667 17.5C1.25981 12.44 3.66549 7.70125 7.69527 4.63989ZM12.25 26.25H10.3721L9.89929 24.3587C9.87366 24.2562 9.82068 24.1625 9.74577 24.0876L8.33415 22.6759L9.23535 21.3239C9.26383 21.2803 9.28662 21.2336 9.30371 21.1843L9.78536 19.7382L11.4328 19.3263L12.9501 21.3501C13.1358 21.5979 13.4827 21.6571 13.7405 21.4854L15.235 20.489L17.3932 21.3523L16.9335 23.1921C16.8942 23.3496 16.9221 23.5162 17.0107 23.6521C17.0992 23.7879 17.2405 23.8808 17.4003 23.9084L20.4167 24.4108V25.0833H18.0833C17.8996 25.0833 17.7267 25.1699 17.6168 25.3166L15.8668 27.6499C15.7181 27.8479 15.7107 28.1179 15.848 28.3239L16.7492 29.6759L14.7542 31.6709C14.6731 31.7521 14.6178 31.8555 14.595 31.9677L14.2882 33.4844C13.6007 33.3332 12.9239 33.1358 12.2628 32.8942L12.6624 32.4946C12.7715 32.3855 12.833 32.2377 12.8333 32.0833V26.8333C12.8333 26.5112 12.5721 26.25 12.25 26.25ZM17.5 33.8333C16.8101 33.8316 16.1211 33.7821 15.4378 33.6852L15.7033 32.3716L17.9124 30.1624C18.109 29.9659 18.1397 29.6577 17.9854 29.4261L17.048 28.0199L18.375 26.25H21C21.3221 26.25 21.5833 25.9888 21.5833 25.6667V23.9167C21.5833 23.6318 21.3774 23.3886 21.0963 23.3416L18.2192 22.8614L18.6493 21.1413C18.7199 20.8579 18.5704 20.5662 18.2992 20.458L15.3826 19.2913C15.2037 19.2204 15.0015 19.2423 14.8417 19.3497L13.5508 20.2107L12.1332 18.3166C11.9925 18.1289 11.7527 18.0437 11.5248 18.1007L9.19149 18.684C8.99809 18.7325 8.84285 18.8766 8.77962 19.0657L8.22164 20.7417L7.09798 22.4261C6.9436 22.6577 6.97437 22.9659 7.1709 23.1624L8.80412 24.7988L9.34843 26.9746C9.41337 27.2352 9.64807 27.4178 9.91667 27.4167H11.6667V31.8418L11.091 32.4177C5.96379 30.0907 2.31824 25.3801 1.35152 19.8333H7.58333C7.78556 19.8333 7.97327 19.7288 8.07979 19.5568C8.18604 19.385 8.19572 19.1702 8.10543 18.9894L7.52209 17.8227C7.44604 17.6703 7.30705 17.5587 7.14185 17.5174L5.11869 17.0118L4.71053 15.795L5.11869 14.983L8.34155 12.8333H9.91667C10.1118 12.8333 10.2938 12.7359 10.402 12.5739L11.5687 10.8239C11.5972 10.7803 11.62 10.7336 11.637 10.6843L12.1566 9.12455L13.7405 8.06868C13.869 7.98267 13.9581 7.84937 13.9883 7.69755L14.5717 4.78088C14.6058 4.6097 14.5617 4.43197 14.4509 4.29696C14.3401 4.16195 14.1746 4.08333 14 4.08333H9.44527L8.82292 3.83439C11.3929 2.11743 14.4093 1.19031 17.5 1.16667C19.5898 1.17379 21.6562 1.60502 23.5743 2.43416L23.0055 3.0024L20.1996 4.12463C20.1466 4.14657 20.0971 4.17562 20.0521 4.21122L17.1354 6.54456C16.9731 6.67415 16.8919 6.88009 16.9224 7.08573C16.9528 7.2911 17.0901 7.46484 17.283 7.54203L20.1996 8.7087C20.3389 8.76396 20.4944 8.76396 20.6337 8.7087L23.3823 7.6084L28.4574 8.73661C28.4987 8.74544 28.5409 8.74971 28.5833 8.75C28.7605 8.75 28.9283 8.66968 29.0388 8.53125L30.0345 7.28654C30.8588 8.28031 31.5675 9.36466 32.1469 10.5188L30.7119 11.6667H27.4167C27.3774 11.6667 27.3383 11.6707 27.2999 11.6783L24.6897 12.1999L23.1602 10.6709C23.0513 10.5621 22.9038 10.5006 22.75 10.5H19.8333C19.6496 10.5 19.4767 10.5866 19.3668 10.7333L17.6168 13.0666C17.5211 13.1942 17.4821 13.3551 17.5083 13.5124L18.0916 17.0124C18.1195 17.1807 18.2198 17.3285 18.3662 17.4165L21.2828 19.1665C21.4156 19.2463 21.5748 19.2702 21.7252 19.2326L23.8489 18.7017L25.7251 19.6391L26.2688 22.8913L26.8521 25.2246C26.8621 25.2659 26.8769 25.3061 26.8957 25.344L28.0624 27.6773C28.104 27.7587 28.1638 27.8291 28.2375 27.8832L29.2256 28.6241C26.1905 31.8859 21.955 33.7675 17.5 33.8333Z" fill="#444141"/>
</g>
<defs>
<clipPath id="clip0_18_31">
<rect width="35" height="35" fill="white"/>
</clipPath>
</defs>
</svg>
