<svg width="35" height="35" viewBox="0 0 35 35" fill="none" xmlns="http://www.w3.org/2000/svg">
<g clip-path="url(#clip0_16_13)">
<path d="M29.8743 5.12559C26.569 1.82034 22.1744 0 17.5 0C12.8256 0 8.43097 1.82034 5.12559 5.12559C1.82034 8.43097 0 12.8256 0 17.5C0 22.1744 1.82027 26.569 5.12559 29.8744C8.43097 33.1797 12.8256 35 17.5 35C22.1744 35 26.5691 33.1797 29.8744 29.8744C33.1797 26.569 35 22.1744 35 17.5C35 12.8256 33.1797 8.43097 29.8743 5.12559ZM8.0539 29.7161C9.39941 25.6823 13.1934 22.9186 17.5 22.9186C21.8066 22.9186 25.6007 25.6824 26.946 29.7162C24.3325 31.7416 21.0548 32.9492 17.5 32.9492C13.9452 32.9492 10.6674 31.7417 8.0539 29.7161ZM28.5848 28.2494C26.7441 23.832 22.3969 20.8679 17.5 20.8679C12.6031 20.8679 8.2559 23.8319 6.41512 28.2494C3.71561 25.4664 2.05078 21.6742 2.05078 17.5C2.05078 8.98126 8.98126 2.05078 17.5 2.05078C26.0187 2.05078 32.9492 8.98126 32.9492 17.5C32.9492 21.6742 31.2844 25.4665 28.5848 28.2494Z" fill="#828181"/>
<path d="M17.5 5.49158C13.9065 5.49158 10.9831 8.41511 10.9831 12.0085C10.9831 15.6019 13.9065 18.5254 17.5 18.5254C21.0934 18.5254 24.017 15.6019 24.017 12.0085C24.017 8.41511 21.0934 5.49158 17.5 5.49158ZM17.5 16.4746C15.0374 16.4746 13.0339 14.4711 13.0339 12.0085C13.0339 9.54591 15.0374 7.54237 17.5 7.54237C19.9626 7.54237 21.9662 9.54591 21.9662 12.0085C21.9662 14.4711 19.9626 16.4746 17.5 16.4746Z" fill="#828181"/>
</g>
<defs>
<clipPath id="clip0_16_13">
<rect width="35" height="35" fill="white"/>
</clipPath>
</defs>
</svg>
