<svg width="88" height="88" viewBox="0 0 88 88" fill="none" xmlns="http://www.w3.org/2000/svg">
<path fill-rule="evenodd" clip-rule="evenodd" d="M44 0C68.301 0 88 19.5505 88 43.6648C88 67.779 68.301 87.3295 44 87.3295C19.699 87.3295 0 67.779 0 43.6648C0 19.5505 19.699 0 44 0ZM56.9181 26.4952L45.299 37.7067C44.4952 38.4838 43.219 38.4838 42.4152 37.7219L30.8533 26.7581V43.5429C30.8533 43.5924 30.8533 43.6419 30.8495 43.6876C30.9257 46.6209 32.3352 49.44 34.6705 51.5238C36.9752 53.5809 40.1638 54.9143 43.8629 54.9524C47.6495 54.9409 50.861 53.6838 53.1505 51.6648C55.4705 49.619 56.8343 46.7848 56.861 43.6914L56.9257 26.4914L56.9181 26.4952ZM51.5048 57.539C48.3352 59.0324 47.4133 60.0724 45.6114 62.1067L45.3181 62.4381C45.2381 62.5295 45.1505 62.6133 45.0514 62.6895C44.1524 63.3981 42.8419 63.2495 42.1257 62.3581C41.2343 61.2419 40.3924 60.4229 39.44 59.6686C38.48 58.9105 37.3448 58.179 35.9238 57.2838C34.4229 56.5638 33.0629 55.6571 31.8819 54.6019C28.8648 51.9086 26.9829 48.2514 26.72 44.3733L20.6019 41.3448C21.1467 48.1333 22.6324 53.6838 25.2495 57.9048C28.1981 62.6552 32.6667 65.76 38.9486 67.0705V67.0743C39.8933 67.2686 40.6019 68.099 40.6019 69.0933L40.6286 79.6571C40.6438 79.8133 40.6362 79.9771 40.6133 80.1409C40.4419 81.2724 39.379 82.0495 38.24 81.8781C28.7695 80.4609 20.5257 75.7105 14.6476 68.9371C8.77333 62.1676 5.26857 53.3714 5.26857 43.8705C5.26857 33.2571 9.60381 23.6457 16.6133 16.6895C23.6229 9.73333 33.3067 5.42857 44.0038 5.42857C54.701 5.42857 64.3848 9.73333 71.3943 16.6895C78.4038 23.6457 82.7391 33.2571 82.7391 43.8705C82.7391 53.3905 79.2229 62.1943 73.3295 68.9752C67.44 75.7486 59.181 80.4952 49.6876 81.8933V81.8895C49.5848 81.9048 49.4781 81.9124 49.3714 81.9124C48.2248 81.9048 47.299 80.9714 47.3105 79.8324L47.4095 69.1886C47.3638 68.1943 48.0495 67.2838 49.0667 67.0743C55.3486 65.7638 59.8133 62.6628 62.7657 57.9086C65.3829 53.6914 66.8686 48.1371 67.4133 41.3486L60.9905 44.5295C60.7429 48.5181 58.9067 52.1295 55.9238 54.7619C54.6514 55.8857 53.1695 56.8305 51.5124 57.5467L51.5048 57.539ZM35.1429 25.1162L42.5067 18.4533C43.3486 17.6914 44.6476 17.7448 45.4248 18.5638L52.3009 25.1924L57.5657 20.1143C57.939 19.7524 58.4495 19.5314 59.0133 19.5314C60.16 19.5314 61.0933 20.4533 61.0933 21.5924L61.0248 39.8781L68.7505 36.0533C69.7829 35.5429 71.0324 35.9619 71.5467 36.9829C71.7333 37.3524 71.7943 37.7486 71.7524 38.1295C71.44 47.1695 69.7333 54.5295 66.2933 60.0724C62.9943 65.3867 58.1714 68.9829 51.5467 70.7276L51.4857 77.3562C58.9486 75.7219 65.4324 71.7371 70.179 66.2705C75.4286 60.2286 78.5638 52.3733 78.5638 43.8667C78.5638 34.3962 74.6933 25.8209 68.4419 19.6114C62.1867 13.4057 53.5467 9.56571 44 9.56571C34.4571 9.56571 25.8133 13.4057 19.5619 19.6114C13.3067 25.8171 9.44 34.3924 9.44 43.8667C9.44 52.3581 12.5676 60.2095 17.8057 66.2514C22.541 71.7105 29.0095 75.6952 36.461 77.3448L36.4457 70.7276C29.8248 68.9829 25.0057 65.3867 21.7105 60.0762C18.2514 54.5029 16.5448 47.0857 16.2476 37.9771C16.2133 36.8381 17.1124 35.8857 18.259 35.8514C18.6133 35.84 18.9524 35.92 19.2495 36.0648L19.2533 36.061L26.6781 39.7371V21.9314H26.6819C26.6819 21.421 26.8724 20.9067 27.2533 20.5067C28.0457 19.68 29.3638 19.6495 30.1943 20.4343L35.139 25.1238L35.1429 25.1162ZM49.3143 28.0686L43.8667 22.8152L38.16 27.9771L43.8324 33.3562L49.3143 28.0686Z" fill="#0BC020"/>
</svg>
